<svg width="30" height="22" fill="none" xmlns="http://www.w3.org/2000/svg">
    <path
            d="M24.527 15.728a2.77 2.77 0 00-1.955.807 2.729 2.729 0 00-.819 1.942c0 .733.287 1.417.819 1.943a2.78 2.78 0 001.955.806c1.502 0 2.724-1.234 2.724-2.749 0-1.515-1.222-2.749-2.724-2.749zm0 4.276c-.843 0-1.552-.696-1.552-1.527 0-.83.709-1.527 1.552-1.527.83 0 1.502.684 1.502 1.527 0 .843-.672 1.527-1.502 1.527zm.708-13.433a.593.593 0 00-.41-.159h-3.133a.613.613 0 00-.61.611v5.01c0 .335.274.61.61.61h4.973c.336 0 .61-.275.61-.61V8.678a.611.611 0 00-.201-.452L25.235 6.57zm.819 4.85h-3.751V7.628h2.285l1.466 1.32v2.473zM9.609 15.729a2.77 2.77 0 00-1.955.807 2.729 2.729 0 00-.818 1.942c0 .733.287 1.417.818 1.943.532.519 1.222.806 1.955.806 1.503 0 2.725-1.234 2.725-2.749 0-1.515-1.222-2.749-2.725-2.749zm0 4.276c-.843 0-1.552-.696-1.552-1.527 0-.83.709-1.527 1.552-1.527.83 0 1.503.684 1.503 1.527 0 .843-.672 1.527-1.503 1.527zM5.535 16.48H4.307v-1.625a.613.613 0 00-.611-.611.613.613 0 00-.611.61v2.236c0 .336.275.611.61.611h1.84c.335 0 .61-.275.61-.61a.613.613 0 00-.61-.611zm3.097-3.33a.613.613 0 00-.611-.61H.61a.613.613 0 00-.611.61c0 .336.275.611.61.611h7.41c.337 0 .612-.269.612-.61zM1.85 10.945l7.41.043c.336 0 .61-.269.617-.605a.605.605 0 00-.605-.617l-7.41-.043h-.006a.607.607 0 00-.61.605.605.605 0 00.604.617zm1.246-2.773h7.41c.336 0 .61-.275.61-.611a.613.613 0 00-.61-.611h-7.41a.613.613 0 00-.61.61c0 .337.274.612.61.612zm26.677-.825L25.4 3.725a.601.601 0 00-.39-.141h-5.144v-2.2a.613.613 0 00-.611-.61H3.695a.613.613 0 00-.61.61v4.472c0 .336.275.611.61.611.337 0 .612-.275.612-.61V1.995H18.65V16.48h-5.01a.613.613 0 00-.61.61c0 .336.275.611.61.611h7.46c.336 0 .61-.275.61-.61a.613.613 0 00-.61-.611h-1.228V4.806h4.923l3.983 3.298-.043 8.363H28.1a.613.613 0 00-.61.611c0 .336.274.611.61.611h1.24c.336 0 .611-.269.611-.605L30 7.824a.645.645 0 00-.226-.477z"
            fill="#000"/>
</svg>